<svg width="225" height="40" viewBox="0 0 225 40" fill="none" xmlns="http://www.w3.org/2000/svg">
<g id="Group 2883">
<path id="Vector" d="M21.7959 19.8378V25.6099L20.063 26.7814L21.7959 29.0757V34.8478L3.32422 28.6526V13.6426L21.7959 19.8378ZM17.1749 29.8892V27.5787L7.94113 24.3774V26.6879L17.1749 29.8892ZM7.94113 20.9157L17.1749 24.1171V21.8066L7.94113 18.6052V20.9157Z" fill="black"/>
<path id="Vector_2" d="M25.1021 0L0 8.81483L25.4682 16.987V39.799L50.9365 31.6309V8.81483L25.1021 0ZM47.5969 28.8038L42.9799 30.3089V18.7605L40.6695 19.513V31.0614L36.0525 32.5665V21.0181L33.7421 21.7706V33.319L29.1211 34.8241V19.8141L36.7115 17.3856L38.363 18.6669L40.0023 16.3117L47.5928 13.7978V28.8079L47.5969 28.8038Z" fill="black"/>
<g id="Group">
<path id="Vector_3" d="M62.8027 8.81836H68.4569V31.5978H62.8027V8.81836ZM67.3668 31.5978V27.3226H72.1545C73.0087 27.3226 73.7084 27.0663 74.2413 26.5538C74.7782 26.0372 75.0467 25.3863 75.0467 24.5931C75.0467 24.0358 74.9247 23.5599 74.6765 23.1653C74.4284 22.7708 74.0908 22.4535 73.6637 22.2176C73.2365 21.9816 72.7118 21.8637 72.0894 21.8637H67.3668V17.7512H71.7355C72.5084 17.7512 73.1348 17.56 73.6148 17.1735C74.0948 16.7871 74.3389 16.2095 74.3389 15.4407C74.3389 14.6719 74.0989 14.0576 73.6148 13.6712C73.1348 13.2848 72.5165 13.0936 71.7681 13.0936H67.3668V8.81836H73.1511C74.587 8.81836 75.8196 9.08683 76.8446 9.62378C77.8738 10.1607 78.667 10.8766 79.2243 11.7756C79.7816 12.6746 80.0582 13.6915 80.0582 14.8264C80.0582 16.3274 79.5375 17.5803 78.5002 18.585C77.4589 19.5939 75.9579 20.2244 73.985 20.4806V18.52C76.1491 18.7762 77.8209 19.48 78.9965 20.623C80.1761 21.7701 80.7619 23.2101 80.7619 24.943C80.7619 26.208 80.4405 27.347 79.7978 28.3639C79.1551 29.3809 78.2521 30.1741 77.0846 30.7436C75.9172 31.3131 74.5423 31.5937 72.9559 31.5937H67.3668V31.5978Z" fill="black"/>
<path id="Vector_4" d="M93.0675 31.9842C91.1394 31.9842 89.4431 31.5734 87.9746 30.7477C86.5062 29.9219 85.3631 28.7992 84.5374 27.3755C83.7116 25.9518 83.3008 24.3165 83.3008 22.4738V8.81836H89.0526V22.9253C89.0526 23.7389 89.2275 24.4426 89.5814 25.0284C89.9353 25.6182 90.4153 26.0697 91.0255 26.3789C91.6356 26.688 92.3149 26.8467 93.0675 26.8467C93.82 26.8467 94.5115 26.6921 95.0932 26.3789C95.6708 26.0697 96.1305 25.6223 96.4763 25.0447C96.8179 24.467 96.9888 23.7714 96.9888 22.9579V8.81836H102.773V22.5064C102.773 24.3491 102.37 25.9762 101.569 27.3917C100.764 28.8073 99.6369 29.926 98.1806 30.7477C96.7244 31.5734 95.02 31.9842 93.0715 31.9842" fill="black"/>
<path id="Vector_5" d="M106.434 8.81836H112.185V31.5978H106.434V8.81836ZM111.026 26.6514H121.985V31.6019H111.026V26.6514Z" fill="black"/>
<path id="Vector_6" d="M124.652 8.81852H130.404V31.598H124.652V8.81852ZM138.471 31.598L129.892 19.7405L138.117 8.81445H145.121L135.709 20.672V18.6178L145.475 31.598H138.471Z" fill="black"/>
<path id="Vector_7" d="M147.242 31.5978V8.81836H151.387L160.096 22.0223H158.201L166.873 8.81836H171.018V31.5978H165.299V18.3613L166.198 18.585L161.028 26.4562H157.237L152.095 18.585L152.961 18.3613V31.5978H147.242Z" fill="black"/>
<path id="Vector_8" d="M175.068 8.81836H180.82V31.5978H175.068V8.81836ZM179.632 8.81836H191.811V13.6712H179.632V8.81836ZM179.632 17.621H190.815V22.3437H179.632V17.621ZM179.632 26.745H191.97V31.5978H179.632V26.745Z" fill="black"/>
<path id="Vector_9" d="M200.965 8.81836H195.213V31.5978H200.965V8.81836Z" fill="black"/>
<path id="Vector_10" d="M205.012 31.5978V8.81836H209.027L210.764 13.5085V31.5978H205.012ZM220.725 31.5978L207.424 14.7288L209.031 8.81836L222.365 25.6874L220.725 31.5978ZM220.725 31.5978L219.249 26.8101V8.81836H225.001V31.5978H220.725Z" fill="black"/>
</g>
</g>
</svg>
